<?xml version="1.0" encoding="UTF-8" standalone="no"?>
<svg
   xmlns:dc="http://purl.org/dc/elements/1.1/"
   xmlns:cc="http://creativecommons.org/ns#"
   xmlns:rdf="http://www.w3.org/1999/02/22-rdf-syntax-ns#"
   xmlns:svg="http://www.w3.org/2000/svg"
   xmlns="http://www.w3.org/2000/svg"
   xmlns:xlink="http://www.w3.org/1999/xlink"
   xmlns:sodipodi="http://sodipodi.sourceforge.net/DTD/sodipodi-0.dtd"
   xmlns:inkscape="http://www.inkscape.org/namespaces/inkscape"
   width="44mm"
   height="50.799999mm"
   viewBox="0 0 44 50.799999"
   version="1.1"
   id="svg4420"
   inkscape:version="1.0.1 (1.0.1+r74)"
   sodipodi:docname="geryon_logo.svg"
   inkscape:export-filename="/home/ghazi/geryon/man/figures/logo.png"
   inkscape:export-xdpi="250"
   inkscape:export-ydpi="250">
  <defs
     id="defs4414">
    <inkscape:path-effect
       effect="skeletal"
       id="path-effect969"
       is_visible="true"
       lpeversion="1"
       pattern="#path7288"
       copytype="repeated"
       prop_scale="0.38"
       scale_y_rel="false"
       spacing="-4.1"
       normal_offset="0"
       tang_offset="0"
       prop_units="false"
       vertical_pattern="true"
       hide_knot="false"
       fuse_tolerance="0" />
    <inkscape:path-effect
       effect="skeletal"
       id="path-effect9211"
       is_visible="true"
       pattern="M 0,0 H 1"
       copytype="single_stretched"
       prop_scale="1"
       scale_y_rel="false"
       spacing="0"
       normal_offset="0"
       tang_offset="0"
       prop_units="false"
       vertical_pattern="false"
       fuse_tolerance="0"
       lpeversion="0"
       hide_knot="false" />
    <inkscape:path-effect
       effect="skeletal"
       id="path-effect5547"
       is_visible="true"
       pattern="m 92.892952,142.38885 h 3.233467"
       copytype="repeated_stretched"
       prop_scale="1"
       scale_y_rel="false"
       spacing="0"
       normal_offset="0"
       tang_offset="0"
       prop_units="false"
       vertical_pattern="false"
       fuse_tolerance="0"
       lpeversion="0"
       hide_knot="false" />
    <inkscape:path-effect
       effect="powerstroke"
       id="path-effect5453"
       is_visible="true"
       offset_points="0.2,0.13229166 | 14.5,0.13229166 | 28.8,0.13229166"
       sort_points="true"
       interpolator_type="CentripetalCatmullRom"
       interpolator_beta="0.1"
       start_linecap_type="butt"
       linejoin_type="miter"
       miter_limit="3.8"
       end_linecap_type="butt"
       lpeversion="0"
       scale_width="1" />
    <inkscape:path-effect
       effect="spiro"
       id="path-effect5451"
       is_visible="true"
       lpeversion="0" />
    <marker
       inkscape:stockid="Arrow1Mend"
       orient="auto"
       refY="0"
       refX="0"
       id="Arrow1Mend"
       style="overflow:visible"
       inkscape:isstock="true">
      <path
         inkscape:connector-curvature="0"
         id="path914"
         d="M 0,0 5,-5 -12.5,0 5,5 Z"
         style="fill:#000000;fill-opacity:1;fill-rule:evenodd;stroke:#000000;stroke-width:1pt;stroke-opacity:1"
         transform="matrix(-0.4,0,0,-0.4,-4,0)" />
    </marker>
    <marker
       inkscape:stockid="Arrow1Mend"
       orient="auto"
       refY="0"
       refX="0"
       id="marker4401"
       style="overflow:visible"
       inkscape:isstock="true">
      <path
         inkscape:connector-curvature="0"
         id="path4399"
         d="M 0,0 5,-5 -12.5,0 5,5 Z"
         style="fill:#000000;fill-opacity:1;fill-rule:evenodd;stroke:#000000;stroke-width:1pt;stroke-opacity:1"
         transform="matrix(-0.4,0,0,-0.4,-4,0)" />
    </marker>
  </defs>
  <sodipodi:namedview
     id="base"
     pagecolor="#ffffff"
     bordercolor="#666666"
     borderopacity="1.0"
     inkscape:pageopacity="0.0"
     inkscape:pageshadow="2"
     inkscape:zoom="1.4142136"
     inkscape:cx="152.42071"
     inkscape:cy="135.39936"
     inkscape:document-units="mm"
     inkscape:current-layer="layer1"
     showgrid="false"
     inkscape:window-width="1920"
     inkscape:window-height="1019"
     inkscape:window-x="1920"
     inkscape:window-y="0"
     inkscape:window-maximized="1"
     inkscape:pagecheckerboard="true"
     fit-margin-top="0"
     fit-margin-left="0"
     fit-margin-right="0"
     fit-margin-bottom="0"
     inkscape:document-rotation="0" />
  <metadata
     id="metadata4417">
    <rdf:RDF>
      <cc:Work
         rdf:about="">
        <dc:format>image/svg+xml</dc:format>
        <dc:type
           rdf:resource="http://purl.org/dc/dcmitype/StillImage" />
        <dc:title></dc:title>
      </cc:Work>
    </rdf:RDF>
  </metadata>
  <g
     inkscape:label="Layer 1"
     inkscape:groupmode="layer"
     id="layer1"
     transform="translate(-39.613074,-133.6387)">
    <path
       sodipodi:type="star"
       style="fill:#000000;stroke-width:0.595464"
       id="path1595"
       sodipodi:sides="6"
       sodipodi:cx="61.610119"
       sodipodi:cy="159.0387"
       sodipodi:r1="25.4"
       sodipodi:r2="21.997046"
       sodipodi:arg1="0.52359878"
       sodipodi:arg2="1.0471976"
       inkscape:flatsided="true"
       inkscape:rounded="0"
       inkscape:randomized="0"
       d="m 83.607164,171.7387 -21.997045,12.7 -21.997045,-12.7 0,-25.4 21.997045,-12.7 21.997045,12.7 z"
       inkscape:transform-center-x="-7.7413061e-06"
       inkscape:export-filename="/home/ghazi/malacoda/man/figures/logo.png"
       inkscape:export-xdpi="96"
       inkscape:export-ydpi="96" />
    <path
       sodipodi:type="star"
       style="fill:#aa8800;fill-opacity:1;stroke-width:0.253178"
       id="path1597"
       sodipodi:sides="6"
       sodipodi:cx="61.610119"
       sodipodi:cy="159.0387"
       sodipodi:r1="23.5"
       sodipodi:r2="20.351599"
       sodipodi:arg1="0.52359878"
       sodipodi:arg2="1.0471976"
       inkscape:flatsided="true"
       inkscape:rounded="0"
       inkscape:randomized="0"
       d="m 81.961716,170.7887 -20.351597,11.75 -20.351597,-11.75 0,-23.5 20.351597,-11.75 20.351597,11.75 z"
       inkscape:transform-center-x="9.4678682e-06"
       inkscape:transform-center-y="1.7929076e-06"
       inkscape:export-filename="/home/ghazi/malacoda/man/figures/logo.png"
       inkscape:export-xdpi="96"
       inkscape:export-ydpi="96" />
    <rect
       style="fill:#000000;stroke-width:0.246687"
       id="rect1607"
       width="42.805798"
       height="0.57499999"
       x="40.081394"
       y="166.9341"
       inkscape:export-filename="/home/ghazi/malacoda/man/figures/logo.png"
       inkscape:export-xdpi="96"
       inkscape:export-ydpi="96" />
    <circle
       style="fill:none;stroke:#000000;stroke-width:0.259356;stroke-miterlimit:4;stroke-dasharray:none;stroke-opacity:1"
       id="circle1609"
       cx="78.539955"
       cy="165.51511"
       r="0.60328698"
       inkscape:export-filename="/home/ghazi/malacoda/man/figures/logo.png"
       inkscape:export-xdpi="96"
       inkscape:export-ydpi="96" />
    <circle
       style="fill:none;stroke:#000000;stroke-width:0.250404;stroke-miterlimit:4;stroke-dasharray:none;stroke-opacity:1"
       id="circle1611"
       cx="79.257149"
       cy="163.29643"
       r="0.80050689"
       inkscape:export-filename="/home/ghazi/malacoda/man/figures/logo.png"
       inkscape:export-xdpi="96"
       inkscape:export-ydpi="96" />
    <text
       xml:space="preserve"
       style="font-style:normal;font-weight:normal;font-size:6.611px;line-height:1.25;font-family:sans-serif;letter-spacing:0px;word-spacing:0px;fill:#000000;fill-opacity:1;stroke:none;stroke-width:0.275458"
       x="44.849926"
       y="165.0649"
       id="text4533"
       inkscape:export-filename="/home/ghazi/malacoda/man/figures/logo.png"
       inkscape:export-xdpi="96"
       inkscape:export-ydpi="96"><tspan
         sodipodi:role="line"
         x="44.849926"
         y="165.0649"
         id="tspan4531"
         style="fill:#ffffff;stroke-width:0.275458">geryon</tspan></text>
    <path
       style="fill:#000000;fill-opacity:1;fill-rule:nonzero;stroke:#000000;stroke-width:0.0700043;stroke-linecap:butt;stroke-linejoin:miter;stroke-opacity:1"
       d="m 56.088236,144.07497 c 0.004,-0.002 -0.06992,-0.27205 -0.180098,-0.69266 0,0 0,0 0,0 -0.389978,-1.49149 -1.105452,-4.88084 -1.126847,-4.91048 -0.0274,-0.038 -2.29594,0.93339 -2.286619,0.98107 0.0073,0.0371 2.12657,2.89434 3.123026,4.07983 0,0 0,0 0,0 0.280914,0.33452 0.466574,0.54438 0.470538,0.54224 z m 0.809565,1.38653 c 0.0075,-0.005 -0.353183,-1.0459 -0.672805,-2.24329 -0.406643,-1.53209 -0.789329,-3.28412 -0.805216,-3.30508 -0.02828,-0.0373 -2.273438,0.98693 -2.263003,1.03438 0.0058,0.0266 1.116477,1.51215 2.144063,2.74932 0.802221,0.96871 1.589429,1.76953 1.596961,1.76467 z m 0.955757,1.28853 c 0.0031,-0.003 -0.110531,-0.21104 -0.264982,-0.5481 -0.424457,-0.92728 -0.694324,-1.82157 -1.051528,-3.14534 -0.253437,-0.9482 -0.434436,-1.704 -0.445185,-1.71751 -0.02915,-0.0366 -2.249696,1.03992 -2.238152,1.08711 0.0042,0.0174 0.495504,0.65621 1.135077,1.43226 0.875167,1.06719 1.60236,1.86528 2.376659,2.51449 0.291267,0.24449 0.484983,0.3798 0.488111,0.37709 z m 1.159475,1.10883 c 0.0053,-0.007 -0.660859,-0.82852 -1.14081,-1.87433 -0.525092,-1.14852 -0.902128,-2.63554 -1.030346,-3.08581 -0.02622,-0.0933 -0.04184,-0.14639 -0.04471,-0.14983 -0.03,-0.0359 -2.224713,1.09235 -2.212067,1.13925 0.0012,0.004 0.03625,0.0499 0.09886,0.12818 0.311569,0.39215 1.330375,1.65496 2.397842,2.57401 0.952639,0.82339 1.925903,1.27542 1.931233,1.26853 z m 1.377428,0.81338 c 0.0014,-0.003 -0.159499,-0.11381 -0.392677,-0.31511 -0.702338,-0.60625 -1.312012,-1.41562 -1.846402,-2.58655 -0.397951,-0.87784 -0.607842,-1.64784 -0.619537,-1.66037 -0.03056,-0.0327 -2.171886,1.1964 -2.155909,1.24444 0.0061,0.0182 0.586081,0.71142 1.426706,1.44963 1.10312,0.97496 2.189104,1.51531 3.085473,1.76076 0.309231,0.0848 0.500902,0.11066 0.502346,0.1072 z m 1.55484,0.38544 c 6.82e-4,-0.008 -0.976947,-0.31688 -1.780496,-1.01718 -0.960327,-0.8365 -1.487482,-1.9345 -1.739986,-2.47949 -0.06056,-0.13198 -0.09458,-0.21026 -0.09871,-0.21371 -0.03263,-0.0273 -2.029682,1.4189 -2.007498,1.46688 0.0028,0.006 0.07773,0.0793 0.210588,0.19967 0.577491,0.52781 1.721224,1.43256 3.19189,1.86782 1.23875,0.36872 2.223576,0.18379 2.224207,0.17601 z m 1.583356,-0.16584 c -9.79e-4,-0.003 -0.152892,0.0119 -0.399817,0.005 -0.860107,-0.0232 -1.868321,-0.34081 -2.7998,-1.16768 -0.704578,-0.62474 -1.076526,-1.31565 -1.09045,-1.32369 -0.03496,-0.0202 -1.769293,1.74071 -1.737513,1.78575 0.01241,0.0176 0.878132,0.63369 2.055782,1.00181 1.528739,0.48201 2.833746,0.23547 3.609834,-0.11087 0.235873,-0.10555 0.362943,-0.18716 0.361964,-0.19031 z m 1.386253,-0.78413 c -0.0021,-0.002 -0.115313,0.0654 -0.313508,0.15162 -0.358223,0.15583 -0.887179,0.31303 -1.544346,0.28607 0,0 0,0 0,0 -1.212749,-0.0431 -2.122781,-0.72439 -2.56685,-1.12179 -0.135633,-0.12115 -0.210925,-0.1997 -0.216504,-0.20126 -0.03662,-0.0102 -1.329673,2.08499 -1.286921,2.12319 0.0064,0.006 0.154792,0.0686 0.408912,0.15302 0.910094,0.3056 2.397077,0.53163 3.842784,-0.065 0,0 0,0 0,0 0.737404,-0.3082 1.206495,-0.74397 1.462083,-1.04127 0.147511,-0.17159 0.216423,-0.28233 0.21435,-0.2846 z m 0.87938,-1.32314 c -0.0027,-9.2e-4 -0.0592,0.0949 -0.172597,0.24125 -0.228552,0.2955 -0.623996,0.69158 -1.234946,0.94563 0,0 0,0 0,0 -0.455989,0.19011 -0.941707,0.25714 -1.400197,0.22877 0,0 0,0 0,0 -0.912067,-0.0467 -1.552528,-0.49389 -1.567478,-0.4936 -0.03609,7.2e-4 -0.68346,2.38981 -0.629206,2.41439 0.02177,0.01 1.259087,0.1481 2.519116,-0.34225 0,0 10e-7,0 10e-7,0 0.630097,-0.25065 1.182039,-0.63245 1.606231,-1.09857 0,0 0,0 0,0 0.554313,-0.60929 0.760522,-1.23289 0.836223,-1.59533 0.03952,-0.18969 0.04552,-0.29938 0.04285,-0.30029 z m 0.119646,-1.58398 c -0.0078,0.001 -0.03787,0.95919 -0.619503,1.67633 -0.302979,0.37749 -0.702217,0.65165 -1.118368,0.81199 -0.492267,0.19075 -0.968902,0.19589 -1.258797,0.17213 -0.206033,-0.0134 -0.328655,-0.0418 -0.33409,-0.0395 -0.03089,0.0129 0.158565,2.46333 0.220142,2.46839 0.01044,8.5e-4 0.231872,-0.0464 0.574944,-0.17199 0.498879,-0.18824 1.163047,-0.537 1.747633,-1.15521 0.479289,-0.50715 0.80334,-1.1124 0.9528,-1.72897 0.283339,-1.18389 -0.156929,-2.03459 -0.164761,-2.03317 z m -0.67098,-1.43974 c -0.0051,0.004 0.31155,0.56744 0.316588,1.3034 0.0052,0.61586 -0.206941,1.23258 -0.586047,1.66664 0,0 0,0 0,0 -0.332595,0.3892 -0.739814,0.58678 -1.00457,0.68022 -0.2051,0.0731 -0.338006,0.0929 -0.342055,0.0972 -0.02161,0.0229 1.126879,2.20622 1.187307,2.18508 0.01083,-0.004 0.226802,-0.15528 0.518855,-0.45284 0.396384,-0.40422 0.846215,-1.02796 1.066599,-1.86074 0,0 0,0 0,0 0.238765,-0.92049 0.09936,-1.80004 -0.225364,-2.47331 -0.391339,-0.80852 -0.9262,-1.14982 -0.931313,-1.14563 z m -1.282079,-0.93759 c -0.0019,0.005 0.3162,0.19888 0.633774,0.59039 0.366371,0.45087 0.638643,1.07922 0.621867,1.73863 -0.01504,0.68969 -0.322444,1.18724 -0.558708,1.43497 0,0 0,0 0,0 -0.152031,0.16541 -0.269503,0.24233 -0.271047,0.24796 -0.0078,0.0284 1.998911,1.46369 2.044562,1.41577 0.0086,-0.009 0.154688,-0.27464 0.283995,-0.72755 0,0 0,-1e-5 0,-1e-5 0.205396,-0.73792 0.248191,-1.72653 -0.198025,-2.70497 -0.413325,-0.89996 -1.093344,-1.44878 -1.675878,-1.7273 -0.515479,-0.24591 -0.878648,-0.27262 -0.88054,-0.26789 z m -1.574817,-0.21393 c 3.59e-4,0.003 0.139544,0.0146 0.360349,0.0663 0.473118,0.11062 1.154632,0.39751 1.631895,1.02076 0.401666,0.5216 0.528951,1.10882 0.499987,1.54269 -0.02631,0.43507 -0.168905,0.69064 -0.166805,0.69868 0.0074,0.0282 2.46223,0.29151 2.478596,0.22693 0.0044,-0.0175 0.0026,-0.65685 -0.33456,-1.43305 -0.344969,-0.78616 -0.958742,-1.49745 -1.797758,-1.92324 -0.956864,-0.48303 -1.838374,-0.41339 -2.311618,-0.30724 -0.233178,0.0524 -0.360445,0.10502 -0.360086,0.10816 z m -1.490619,0.55388 c 0.0046,0.007 0.927337,-0.36628 1.851509,-0.12863 0.621459,0.15853 1.125108,0.52669 1.418121,0.94049 0.380835,0.53223 0.384321,1.01141 0.391579,1.0189 0.02026,0.0209 2.286952,-0.95419 2.269537,-1.01849 -0.0059,-0.0219 -0.527206,-0.89998 -1.55519,-1.44574 -0.79909,-0.42099 -1.697297,-0.54865 -2.525392,-0.38751 -1.227168,0.24089 -1.854743,1.01426 -1.850164,1.02098 z m -1.085656,1.16368 c 0.0058,0.004 0.4498,-0.5126 1.162746,-0.80982 0.573654,-0.24381 1.221498,-0.29239 1.77495,-0.1301 0.838326,0.24232 1.193754,0.84281 1.205378,0.84642 0.0047,0.001 0.04935,-0.0511 0.121207,-0.13939 0,0 0,0 0,0 0.290905,-0.35761 1.030124,-1.30014 1.287938,-1.6832 0,0 0,0 0,0 0.06367,-0.0946 0.0981,-0.1549 0.0905,-0.16273 -0.01886,-0.0194 -1.300995,-0.70393 -2.707427,-0.45823 -0.920987,0.16344 -1.669177,0.63088 -2.172293,1.19519 -0.617872,0.70269 -0.768781,1.33824 -0.762996,1.34186 z m -0.652393,1.46418 c 0.0045,0.001 0.154928,-0.27457 0.430762,-0.6491 0.366542,-0.49573 0.924338,-1.09028 1.596975,-1.34195 0.658367,-0.25816 1.242026,-0.17422 1.562873,-0.0666 0.19052,0.0625 0.295354,0.12313 0.300702,0.12211 0.02899,-0.006 0.43992,-2.43959 0.376877,-2.4597 -0.01107,-0.004 -0.273359,-0.0158 -0.681029,0.0477 -0.724272,0.11535 -1.644677,0.46233 -2.384369,1.25864 -0.708765,0.78306 -0.981507,1.66544 -1.101997,2.29797 -0.09228,0.48136 -0.105311,0.78959 -0.100794,0.79102 z m -0.399831,1.55546 c 0.0014,3.2e-4 0.01538,-0.0262 0.04003,-0.0758 0,0 0,0 0,0 0.06755,-0.13565 0.597847,-1.2979 1.118043,-1.98794 0,0 0,0 0,0 0.491377,-0.64375 1.004165,-1.05037 1.479088,-1.20384 0.394098,-0.13883 0.669801,-0.12209 0.676222,-0.12725 0.02342,-0.0188 -0.766561,-2.35786 -0.831152,-2.346 -0.01688,0.003 -0.543221,0.24989 -1.089204,0.81739 -0.628173,0.67677 -1.031415,1.49794 -1.219884,2.43608 0,0 0,0 0,0 -0.207287,1.01387 -0.178994,2.22902 -0.176483,2.4017 0,0 0,0 0,0 7.93e-4,0.0553 0.0019,0.0853 0.0033,0.0856 z m -0.398164,1.55556 c 0.0071,0.002 0.379007,-0.67592 0.791519,-1.55095 0.335911,-0.70574 0.668613,-1.3901 1.087352,-1.92955 0.517234,-0.65197 0.985211,-0.90976 0.99021,-0.9205 0.01354,-0.0291 -1.751461,-1.73947 -1.801944,-1.70137 -0.01789,0.0135 -0.595105,0.85079 -0.818462,1.92072 -0.185344,0.86425 -0.203884,1.67643 -0.207174,2.46007 -0.0075,0.97137 -0.04857,1.71935 -0.0415,1.72158 z m -0.648214,1.46672 c 0.0047,0.003 0.313055,-0.28903 0.662655,-0.8129 0.425214,-0.63407 0.736669,-1.30172 1.121485,-2.12642 0.555735,-1.16913 0.788102,-1.52222 1.057176,-1.87275 0.027,-0.0341 0.04183,-0.0531 0.04228,-0.0557 0.0064,-0.0371 -2.242919,-1.06404 -2.274835,-1.01602 -0.0022,0.003 -0.01176,0.0382 -0.0261,0.10028 -0.130977,0.54823 -0.230117,1.24118 -0.23735,2.51688 -0.01155,0.92382 -0.0017,1.55793 -0.113643,2.28213 -0.09106,0.58277 -0.236348,0.98163 -0.231665,0.98452 z m -1.078723,1.16917 c 0.0017,0.002 0.11375,-0.0373 0.299876,-0.13324 0.488483,-0.25373 1.16214,-0.76639 1.771772,-1.71732 0,0 0,0 0,0 0.487236,-0.75098 0.892511,-1.66322 1.130471,-2.18075 0.199476,-0.42204 0.32665,-0.67668 0.326792,-0.68688 6.15e-4,-0.0444 -2.392933,-0.6563 -2.415261,-0.6103 -0.0051,0.0105 -0.02472,0.34244 -0.02887,0.81549 -0.01078,0.57197 0.0042,1.49734 -0.104658,2.2278 0,0 0,0 0,0 -0.149239,0.97087 -0.440417,1.5813 -0.779292,2.03408 -0.119814,0.1611 -0.202511,0.24872 -0.200826,0.25112 z m -1.444391,0.68931 c 0.0025,0.008 0.909218,0.0311 1.975425,-0.54746 0.786977,-0.44275 1.419902,-1.14141 1.866243,-1.86275 0.505621,-0.80224 0.76535,-1.42381 0.765995,-1.44038 0.002,-0.0506 -2.398179,-0.63492 -2.418413,-0.59489 -0.0067,0.0132 0.01319,0.6137 -0.09037,1.3413 -0.09587,0.63859 -0.268345,1.32148 -0.684821,1.88866 -0.550043,0.77955 -1.416584,1.20789 -1.414059,1.21552 z m -1.545485,0.43507 c 0.0018,0.007 0.641966,0.0101 1.532565,-0.0742 0.678802,-0.0613 1.448887,-0.20987 2.215132,-0.63844 1.222801,-0.72544 1.854138,-1.83207 1.859025,-1.85514 0.01187,-0.056 -2.270536,-1.0042 -2.294908,-0.9742 -0.01027,0.0126 -0.05393,0.87817 -0.579057,1.6215 -0.309638,0.47575 -0.855351,0.871 -1.405181,1.19926 -0.72467,0.42744 -1.329415,0.71459 -1.327576,0.72122 z m -1.508726,0.54851 c 0.0025,0.005 0.430306,-0.10383 1.04705,-0.15935 0.575619,-0.0499 1.319561,-0.0452 2.101105,-0.12606 0.939791,-0.089 1.683104,-0.33657 2.331295,-0.71032 0.370715,-0.23095 0.57346,-0.41153 0.579629,-0.42132 0.03347,-0.0531 -1.826471,-1.66085 -1.854271,-1.64425 -0.0053,0.003 -0.05909,0.13939 -0.186352,0.32689 -0.202614,0.34224 -0.583198,0.69519 -1.289018,1.12737 -0.59503,0.35523 -1.307291,0.68379 -1.830461,0.98716 -0.563105,0.32383 -0.901513,0.61485 -0.898977,0.61988 z m -1.249623,0.9875 c 0.0033,0.003 0.190252,-0.16408 0.514681,-0.33437 0.50791,-0.26636 1.07031,-0.39904 1.890753,-0.47421 0.702304,-0.0584 1.465753,-0.0607 2.097692,-0.13181 0.641519,-0.0639 1.119701,-0.21253 1.132004,-0.2215 0.0477,-0.0348 -1.034895,-2.25337 -1.071229,-2.24777 -0.0096,0.001 -0.241573,0.20116 -0.690187,0.48261 -0.450609,0.27184 -1.146965,0.59316 -1.833875,0.98141 -0.798966,0.44259 -1.351982,0.91769 -1.712714,1.39379 -0.242268,0.31844 -0.330452,0.54928 -0.327125,0.55185 z m -0.525892,1.48049 c 0.0021,-5e-5 0.01404,-0.063 0.04683,-0.16939 0,0 0,0 0,0 0.122413,-0.40154 0.440296,-0.97349 1.227089,-1.37489 0.550035,-0.27983 1.182495,-0.35726 1.764649,-0.41126 0.743656,-0.0586 1.383085,-0.0747 1.397364,-0.082 0.04434,-0.0227 -0.608248,-2.40279 -0.653807,-2.401 -0.01476,5.9e-4 -0.542023,0.24713 -1.323634,0.6789 -0.626631,0.33547 -1.319478,0.81222 -1.838818,1.45676 -0.720382,0.88324 -0.72016,1.75853 -0.659867,2.1281 0,0 0,0 0,0 0.01901,0.11453 0.03806,0.17486 0.04019,0.17481 z m 0.584728,1.46195 c 0.0058,-0.005 -0.455505,-0.83743 -0.177734,-1.60887 0.171501,-0.53185 0.634364,-0.90571 1.096599,-1.13104 0.706653,-0.3431 1.45608,-0.33098 1.469004,-0.33977 0.0337,-0.0229 -0.759789,-2.36511 -0.814429,-2.35772 -0.02058,0.003 -0.942225,0.4276 -1.768171,1.40621 -0.574488,0.66857 -0.877404,1.55106 -0.790357,2.37196 0.154595,1.20321 0.979302,1.66426 0.985088,1.65923 z m 1.337866,0.85006 c 0.0021,-0.007 -0.675972,-0.35001 -1.037534,-1.04367 -0.238102,-0.4573 -0.302791,-1.00723 -0.125808,-1.39329 0.19323,-0.52723 0.746774,-0.78713 0.969243,-0.89222 0.09203,-0.0433 0.149631,-0.0636 0.151861,-0.0669 0.01781,-0.0262 -1.429384,-2.01423 -1.48617,-1.98512 -0.0068,0.003 -0.09269,0.0854 -0.229091,0.23913 -0.370181,0.40818 -1.008379,1.3445 -0.917713,2.61077 0.0963,0.88767 0.569608,1.56002 1.115876,1.96344 0.821506,0.60364 1.557221,0.57456 1.559336,0.56782 z m 1.588192,0.13581 c -6.86e-4,-0.006 -0.599122,-0.0375 -1.241119,-0.35503 -0.474456,-0.23538 -0.915674,-0.6095 -1.12331,-1.06274 -0.227686,-0.49969 -0.168532,-0.92987 -0.0403,-1.13336 0.07865,-0.17928 0.198255,-0.26887 0.198152,-0.27402 -4.57e-4,-0.0229 -2.268519,-0.96853 -2.303514,-0.90533 -0.0073,0.0132 -0.127951,0.40624 -0.100126,1.04177 0.0724,0.7887 0.43431,1.63243 1.201388,2.22337 0.672273,0.51353 1.413535,0.69165 2.038001,0.69909 0.843848,0.01 1.37151,-0.22736 1.370824,-0.23375 z m 1.549966,-0.40057 c -0.0021,-0.005 -0.458057,0.086 -1.08389,0.073 -0.529597,-0.0116 -1.130622,-0.10726 -1.630956,-0.3735 -0.516754,-0.27713 -0.825147,-0.6414 -0.942008,-0.95153 -0.11368,-0.30738 -0.0893,-0.50232 -0.09381,-0.50653 -0.01704,-0.0159 -2.342414,0.81474 -2.326925,0.88619 0.0038,0.0177 0.249991,0.55495 0.861252,1.04251 0.602621,0.47543 1.364241,0.78592 2.219303,0.81029 0.805739,0.0226 1.493116,-0.18315 2.017517,-0.41932 0.622409,-0.27994 0.981612,-0.55573 0.979512,-0.56107 z m 1.444237,-0.69869 c -0.0024,-0.004 -0.334689,0.0995 -0.837083,0.21521 -0.496483,0.11406 -1.139233,0.23132 -1.76532,0.20911 -0.618399,-0.0237 -1.120687,-0.15822 -1.481501,-0.36744 -0.422026,-0.24818 -0.584725,-0.49407 -0.592771,-0.49569 -0.02708,-0.005 -1.406068,2.03649 -1.355491,2.08227 0.01425,0.0129 0.642379,0.33971 1.515721,0.37689 0.731702,0.0307 1.461547,-0.1061 2.166972,-0.41325 0.70619,-0.3065 1.274644,-0.71205 1.684554,-1.03647 0.416664,-0.32953 0.667363,-0.56626 0.664919,-0.57063 z m 1.371607,-0.83558 c -0.0051,-0.008 -1.139221,0.45262 -2.36394,0.73029 -0.62958,0.14186 -1.186444,0.21324 -1.683312,0.18711 -0.666892,-0.0383 -1.046694,-0.21199 -1.057008,-0.20965 -0.03153,0.007 -0.28889,2.45695 -0.227848,2.47307 0.01916,0.005 0.81844,-0.0296 1.684269,-0.39564 0.639886,-0.26918 1.211987,-0.62675 1.766563,-1.05847 1.078782,-0.83814 1.886355,-1.71884 1.881276,-1.72671 z m 1.346374,-0.88102 c -0.0036,-0.006 -0.579209,0.21182 -1.349938,0.50004 -0.829183,0.31008 -1.676021,0.60977 -2.513379,0.7954 0,0 -10e-7,0 -10e-7,0 -0.836915,0.18359 -1.406164,0.17422 -1.417716,0.18082 -0.03255,0.0186 0.558634,2.41242 0.616341,2.40818 0.01993,-0.001 0.808751,-0.36058 1.590046,-0.96084 0,0 0,0 0,0 1.456769,-1.11569 3.081892,-2.91241 3.074647,-2.9236 z m 1.368505,-0.83768 c -0.0049,-0.009 -1.346657,0.44551 -2.673416,0.95002 -1.32676,0.50451 -2.617852,0.8495 -2.706279,0.87783 -0.0026,8.3e-4 -0.0042,0.001 -0.0047,0.002 -0.03315,0.027 1.032933,2.25339 1.083733,2.23988 7.37e-4,-2e-4 0.0025,-0.001 0.0054,-0.003 0.09527,-0.0607 1.29855,-1.053 2.303328,-2.07717 1.004778,-1.02418 1.996885,-1.98063 1.991951,-1.98938 z m 1.438,-0.70548 c -9.53e-4,-0.002 -0.08778,0.01 -0.23921,0.038 -0.779385,0.14529 -1.660342,0.40665 -3.080684,0.94622 -1.18363,0.44964 -2.190161,0.81914 -2.204361,0.83311 -0.03227,0.0318 1.248798,2.14172 1.296139,2.125 0.0207,-0.007 0.858243,-0.81919 1.724607,-1.70369 1.06304,-1.0853 1.641951,-1.59672 2.310647,-2.09424 0.122298,-0.091 0.193816,-0.14211 0.192862,-0.14444 z m 1.533241,-0.4814 c -0.0017,-0.008 -0.857239,-0.0297 -1.916268,0.18928 0,0 0,0 0,0 -1.708886,0.35268 -3.80417,1.2412 -3.824736,1.26231 -0.03329,0.0341 1.326208,2.10073 1.370949,2.08355 0.02763,-0.0106 1.48048,-1.61796 2.787769,-2.57914 0,0 10e-7,0 10e-7,0 0.807593,-0.59413 1.583945,-0.94836 1.582285,-0.956 z m 1.589915,-0.17405 c 4.4e-5,-0.0117 -1.949133,-0.3309 -3.647062,0.0399 0,0 0,0 0,0 -1.253969,0.273 -2.28625,0.68341 -2.301627,0.69795 -0.03625,0.0343 1.265221,2.13028 1.308166,2.11551 0.01832,-0.006 0.70658,-0.73351 1.609201,-1.39992 0,0 0,0 0,0 0.647969,-0.47894 1.294889,-0.84702 1.951431,-1.1106 0.609393,-0.24466 1.079869,-0.337 1.079891,-0.34286 z m 1.589332,0.21402 c 0.0016,-0.006 -0.42591,-0.26168 -1.122059,-0.46267 -1.441765,-0.41735 -2.988017,-0.32274 -4.252974,-0.0297 -0.407045,0.0939 -0.659378,0.1702 -0.667655,0.17665 -0.04116,0.0321 1.06584,2.23038 1.107792,2.22088 0.0085,-0.002 0.176429,-0.14364 0.452881,-0.34745 0.84743,-0.62581 1.962074,-1.27867 3.321076,-1.48893 0.657364,-0.10196 1.159344,-0.063 1.160939,-0.0688 z m 1.463908,0.64595 c 0.0054,-0.008 -1.047476,-1.05356 -2.560071,-1.46259 -1.54408,-0.42001 -3.266946,-0.20132 -3.290907,-0.18818 -0.04765,0.0261 0.723056,2.37792 0.764301,2.37526 0.0211,-0.001 1.127694,-0.73635 2.435933,-0.94769 1.265805,-0.20576 2.645327,0.23166 2.650744,0.2232 z m 1.174362,1.07795 c 0.0029,-0.002 -0.06457,-0.17547 -0.224455,-0.4413 -0.581621,-0.96789 -1.763258,-2.01042 -3.484441,-2.4483 -0.846105,-0.21715 -1.497959,-0.23666 -1.514193,-0.23163 -0.05319,0.0165 0.252749,2.46024 0.29187,2.46558 0.0122,0.002 0.440393,-0.18802 1.080576,-0.29644 1.312709,-0.22464 2.532129,0.0501 3.4618,0.66631 0.245846,0.16302 0.385908,0.28797 0.388843,0.28578 z m 0.631479,1.45698 c 0.0018,-2.6e-4 0.0079,-0.0458 0.01129,-0.13006 0.01375,-0.33645 -0.03271,-1.11479 -0.607083,-2.01434 -0.515057,-0.80925 -1.245896,-1.43784 -2.015698,-1.87452 -0.724283,-0.41086 -1.327058,-0.56759 -1.343923,-0.56655 -0.05794,0.004 -0.343112,2.46007 -0.308348,2.47491 0.01038,0.004 0.413965,-0.0665 1.0046,-0.0251 0.623587,0.0437 1.32899,0.21559 1.978707,0.63905 0.754027,0.4922 1.072845,1.03612 1.227896,1.37881 0.03395,0.075 0.05076,0.11808 0.05256,0.11783 z m -0.284037,1.55053 c 0.0065,0.004 0.657534,-0.61433 0.650418,-1.74865 -0.0037,-0.7461 -0.261866,-1.52164 -0.70643,-2.18824 -0.715222,-1.07788 -1.706519,-1.68526 -1.728948,-1.6906 -0.05729,-0.0136 -1.008333,2.26647 -0.979764,2.28925 0.01153,0.009 0.753466,0.0526 1.512554,0.53303 0.467002,0.29642 0.890079,0.6892 1.128549,1.20491 0.356987,0.76536 0.117162,1.59649 0.123621,1.6003 z"
       id="path5449"
       inkscape:connector-curvature="0"
       sodipodi:nodetypes="cscscscscsc"
       inkscape:original-d="m 53.624212,138.93025 c 2.882333,1.28328 -0.743098,3.24346 2.138706,4.52727 2.881804,1.28381 8.274493,1.67475 9.923647,3.59782 1.443666,1.68347 -5.26247,-5.37483 -4.913909,-3.80429 0.364685,1.64319 -5.188875,6.11011 -3.889845,8.09475 1.299027,1.98464 -4.843617,3.36537 -6.521151,4.16096 -1.677534,0.79559 6.40452,0.008 5.750671,1.91358 -0.653848,1.9059 6.735118,-4.7206 6.059451,-3.56144 -4.522696,7.75906 4.236601,1.40226 7.260145,0.82769 3.023545,-0.57458 0.01152,3.03573 0.530976,3.55571 0.519454,0.51998 -2.177384,1.54001 -0.814082,0.64201"
       inkscape:path-effect="#path-effect5451;#path-effect969"
       inkscape:export-filename="/home/ghazi/malacoda/man/figures/logo.png"
       inkscape:export-xdpi="96"
       inkscape:export-ydpi="96" />
    <path
       sodipodi:type="star"
       style="fill:#000000;stroke:none;stroke-width:0.575;stroke-miterlimit:4;stroke-dasharray:none"
       id="path7288"
       sodipodi:sides="3"
       sodipodi:cx="89.824844"
       sodipodi:cy="141.75101"
       sodipodi:r1="3.7804263"
       sodipodi:r2="1.8902131"
       sodipodi:arg1="1.5707963"
       sodipodi:arg2="2.6179939"
       inkscape:flatsided="true"
       inkscape:rounded="0.00821605"
       inkscape:randomized="0"
       d="m 89.824844,145.53143 c -0.0538,0 -3.300844,-5.62405 -3.273945,-5.67064 0.0269,-0.0466 6.520992,-0.0466 6.54789,0 0.0269,0.0466 -3.220147,5.67064 -3.273945,5.67064 z"
       inkscape:transform-center-y="0.40060551"
       transform="matrix(0.24639862,0,0,0.43185537,67.692127,75.146894)"
       inkscape:tile-cx="50.211768"
       inkscape:tile-cy="5.2668953"
       inkscape:tile-w="6.5482225"
       inkscape:tile-h="9.9999999"
       inkscape:tile-x0="46.937657"
       inkscape:tile-y0="1.8927387" />
    <use
       x="0"
       y="0"
       inkscape:tiled-clone-of="#path7288"
       xlink:href="#path7288"
       id="use8909"
       inkscape:transform-center-x="-9.098657"
       inkscape:transform-center-y="1.3549968"
       width="100%"
       height="100%" />
    <use
       x="0"
       y="0"
       inkscape:tiled-clone-of="#path7288"
       xlink:href="#path7288"
       transform="matrix(0.9915,0,0,0.9915,0.76351117,1.8192928)"
       id="use8911"
       inkscape:transform-center-x="-9.098657"
       inkscape:transform-center-y="1.8371202"
       width="100%"
       height="100%" />
    <use
       x="0"
       y="0"
       inkscape:tiled-clone-of="#path7288"
       xlink:href="#path7288"
       transform="matrix(0.983,0,0,0.983,1.5270223,3.5936073)"
       id="use8913"
       inkscape:transform-center-x="-9.098657"
       inkscape:transform-center-y="2.2861657"
       width="100%"
       height="100%" />
    <use
       x="0"
       y="0"
       inkscape:tiled-clone-of="#path7288"
       xlink:href="#path7288"
       transform="matrix(0.9745,0,0,0.9745,2.2905335,5.3520155)"
       id="use8915"
       inkscape:transform-center-x="-9.098657"
       inkscape:transform-center-y="2.7235136"
       width="100%"
       height="100%" />
    <use
       x="0"
       y="0"
       inkscape:tiled-clone-of="#path7288"
       xlink:href="#path7288"
       transform="matrix(0.966,0,0,0.966,3.0540447,7.1003222)"
       id="use8917"
       inkscape:transform-center-x="-9.098657"
       inkscape:transform-center-y="3.1534326"
       width="100%"
       height="100%" />
    <use
       x="0"
       y="0"
       inkscape:tiled-clone-of="#path7288"
       xlink:href="#path7288"
       transform="matrix(0.9575,0,0,0.9575,3.8175559,8.8412299)"
       id="use8919"
       inkscape:transform-center-x="-9.098657"
       inkscape:transform-center-y="3.5779102"
       width="100%"
       height="100%" />
    <use
       x="0"
       y="0"
       inkscape:tiled-clone-of="#path7288"
       xlink:href="#path7288"
       transform="matrix(0.949,0,0,0.949,4.581067,10.576308)"
       id="use8921"
       inkscape:transform-center-x="-9.0986569"
       inkscape:transform-center-y="3.9981007"
       width="100%"
       height="100%" />
    <use
       x="0"
       y="0"
       inkscape:tiled-clone-of="#path7288"
       xlink:href="#path7288"
       transform="matrix(0.9405,0,0,0.9405,5.3445782,12.306584)"
       id="use8923"
       inkscape:transform-center-x="-9.098657"
       inkscape:transform-center-y="4.4147597"
       width="100%"
       height="100%" />
    <use
       x="0"
       y="0"
       inkscape:tiled-clone-of="#path7288"
       xlink:href="#path7288"
       transform="matrix(0.932,0,0,0.932,6.1080894,14.03278)"
       id="use8925"
       inkscape:transform-center-x="-9.098657"
       inkscape:transform-center-y="4.8284182"
       width="100%"
       height="100%" />
    <use
       x="0"
       y="0"
       inkscape:tiled-clone-of="#path7288"
       xlink:href="#path7288"
       transform="matrix(0.9235,0,0,0.9235,6.8716005,15.755433)"
       id="use8927"
       inkscape:transform-center-x="-9.0986569"
       inkscape:transform-center-y="5.2394712"
       width="100%"
       height="100%" />
    <use
       x="0"
       y="0"
       inkscape:tiled-clone-of="#path7288"
       xlink:href="#path7288"
       transform="matrix(0.915,0,0,0.915,7.6351117,17.474957)"
       id="use8929"
       inkscape:transform-center-x="-9.0986569"
       inkscape:transform-center-y="5.6482229"
       width="100%"
       height="100%" />
    <use
       x="0"
       y="0"
       inkscape:tiled-clone-of="#path7288"
       xlink:href="#path7288"
       transform="matrix(0.9065,0,0,0.9065,8.3986229,19.191681)"
       id="use8931"
       inkscape:transform-center-x="-9.098657"
       inkscape:transform-center-y="6.0549153"
       width="100%"
       height="100%" />
    <use
       x="0"
       y="0"
       inkscape:tiled-clone-of="#path7288"
       xlink:href="#path7288"
       transform="matrix(0.898,0,0,0.898,9.1621341,20.905873)"
       id="use8933"
       inkscape:transform-center-x="-9.098657"
       inkscape:transform-center-y="6.4597459"
       width="100%"
       height="100%" />
    <use
       x="0"
       y="0"
       inkscape:tiled-clone-of="#path7288"
       xlink:href="#path7288"
       transform="matrix(0.8895,0,0,0.8895,9.9256452,22.617753)"
       id="use8935"
       inkscape:transform-center-x="-9.0986569"
       inkscape:transform-center-y="6.8628761"
       width="100%"
       height="100%" />
    <use
       x="0"
       y="0"
       inkscape:tiled-clone-of="#path7288"
       xlink:href="#path7288"
       transform="matrix(0.881,0,0,0.881,10.689156,24.32751)"
       id="use8937"
       inkscape:transform-center-x="-9.0986566"
       inkscape:transform-center-y="7.264445"
       width="100%"
       height="100%" />
    <use
       x="0"
       y="0"
       inkscape:tiled-clone-of="#path7288"
       xlink:href="#path7288"
       transform="matrix(0.8725,0,0,0.8725,11.452667,26.035302)"
       id="use8939"
       inkscape:transform-center-x="-9.0986565"
       inkscape:transform-center-y="7.6645691"
       width="100%"
       height="100%" />
    <use
       x="0"
       y="0"
       inkscape:tiled-clone-of="#path7288"
       xlink:href="#path7288"
       transform="matrix(0.864,0,0,0.864,12.216179,27.741266)"
       id="use8941"
       inkscape:transform-center-x="-9.0986571"
       inkscape:transform-center-y="8.0633483"
       width="100%"
       height="100%" />
    <use
       x="0"
       y="0"
       inkscape:tiled-clone-of="#path7288"
       xlink:href="#path7288"
       transform="matrix(0.8555,0,0,0.8555,12.97969,29.445523)"
       id="use8943"
       inkscape:transform-center-x="-9.0986569"
       inkscape:transform-center-y="8.4608727"
       width="100%"
       height="100%" />
    <use
       x="0"
       y="0"
       inkscape:tiled-clone-of="#path7288"
       xlink:href="#path7288"
       transform="matrix(0.847,0,0,0.847,13.743201,31.148177)"
       id="use8945"
       inkscape:transform-center-x="-9.0986568"
       inkscape:transform-center-y="8.8572177"
       width="100%"
       height="100%" />
    <use
       x="0"
       y="0"
       inkscape:tiled-clone-of="#path7288"
       xlink:href="#path7288"
       transform="matrix(0.8385,0,0,0.8385,14.506712,32.849324)"
       id="use8947"
       inkscape:transform-center-x="-9.0986567"
       inkscape:transform-center-y="9.2524548"
       width="100%"
       height="100%" />
    <use
       x="0"
       y="0"
       inkscape:tiled-clone-of="#path7288"
       xlink:href="#path7288"
       transform="matrix(0.83,0,0,0.83,15.270223,34.549044)"
       id="use8949"
       inkscape:transform-center-x="-9.0986565"
       inkscape:transform-center-y="9.6466422"
       width="100%"
       height="100%" />
    <use
       x="0"
       y="0"
       inkscape:tiled-clone-of="#path7288"
       xlink:href="#path7288"
       transform="matrix(0.8215,0,0,0.8215,16.033735,36.247415)"
       id="use8951"
       inkscape:transform-center-x="-9.0986574"
       inkscape:transform-center-y="10.039838"
       width="100%"
       height="100%" />
    <use
       x="0"
       y="0"
       inkscape:tiled-clone-of="#path7288"
       xlink:href="#path7288"
       transform="matrix(0.813,0,0,0.813,16.797246,37.944502)"
       id="use8953"
       inkscape:transform-center-x="-9.098657"
       inkscape:transform-center-y="10.432089"
       width="100%"
       height="100%" />
    <use
       x="0"
       y="0"
       inkscape:tiled-clone-of="#path7288"
       xlink:href="#path7288"
       transform="matrix(0.8045,0,0,0.8045,17.560757,39.640368)"
       id="use8955"
       inkscape:transform-center-x="-9.0986569"
       inkscape:transform-center-y="10.823442"
       width="100%"
       height="100%" />
    <use
       x="0"
       y="0"
       inkscape:tiled-clone-of="#path7288"
       xlink:href="#path7288"
       transform="matrix(0.796,0,0,0.796,18.324268,41.335068)"
       id="use8957"
       inkscape:transform-center-x="-9.0986567"
       inkscape:transform-center-y="11.213938"
       width="100%"
       height="100%" />
    <use
       x="0"
       y="0"
       inkscape:tiled-clone-of="#path7288"
       xlink:href="#path7288"
       transform="matrix(0.7875,0,0,0.7875,19.087779,43.028652)"
       id="use8959"
       inkscape:transform-center-x="-9.0986566"
       inkscape:transform-center-y="11.603613"
       width="100%"
       height="100%" />
    <use
       x="0"
       y="0"
       inkscape:tiled-clone-of="#path7288"
       xlink:href="#path7288"
       transform="matrix(0.779,0,0,0.779,19.85129,44.721169)"
       id="use8961"
       inkscape:transform-center-x="-9.0986565"
       inkscape:transform-center-y="11.992504"
       width="100%"
       height="100%" />
    <use
       x="0"
       y="0"
       inkscape:tiled-clone-of="#path7288"
       xlink:href="#path7288"
       transform="matrix(0.7705,0,0,0.7705,20.614802,46.41266)"
       id="use8963"
       inkscape:transform-center-x="-9.0986571"
       inkscape:transform-center-y="12.380639"
       width="100%"
       height="100%" />
    <use
       x="0"
       y="0"
       inkscape:tiled-clone-of="#path7288"
       xlink:href="#path7288"
       transform="matrix(0.762,0,0,0.762,21.378313,48.103166)"
       id="use8965"
       inkscape:transform-center-x="-9.098657"
       inkscape:transform-center-y="12.768051"
       width="100%"
       height="100%" />
    <use
       x="0"
       y="0"
       inkscape:tiled-clone-of="#path7288"
       xlink:href="#path7288"
       transform="matrix(0.7535,0,0,0.7535,22.141824,49.792724)"
       id="use8967"
       inkscape:transform-center-x="-9.0986568"
       inkscape:transform-center-y="13.154765"
       width="100%"
       height="100%" />
    <use
       x="0"
       y="0"
       inkscape:tiled-clone-of="#path7288"
       xlink:href="#path7288"
       transform="matrix(0.745,0,0,0.745,22.905335,51.481366)"
       id="use8969"
       inkscape:transform-center-x="-9.0986567"
       inkscape:transform-center-y="13.540805"
       width="100%"
       height="100%" />
    <use
       x="0"
       y="0"
       inkscape:tiled-clone-of="#path7288"
       xlink:href="#path7288"
       transform="matrix(0.7365,0,0,0.7365,23.668846,53.169129)"
       id="use8971"
       inkscape:transform-center-x="-9.0986565"
       inkscape:transform-center-y="13.9262"
       width="100%"
       height="100%" />
    <use
       x="0"
       y="0"
       inkscape:tiled-clone-of="#path7288"
       xlink:href="#path7288"
       transform="matrix(0.728,0,0,0.728,24.432357,54.856039)"
       id="use8973"
       inkscape:transform-center-x="-9.0986564"
       inkscape:transform-center-y="14.310967"
       width="100%"
       height="100%" />
    <use
       x="0"
       y="0"
       inkscape:tiled-clone-of="#path7288"
       xlink:href="#path7288"
       transform="matrix(0.7195,0,0,0.7195,25.195869,56.542123)"
       id="use8975"
       inkscape:transform-center-x="-9.098657"
       inkscape:transform-center-y="14.695126"
       width="100%"
       height="100%" />
    <use
       x="0"
       y="0"
       inkscape:tiled-clone-of="#path7288"
       xlink:href="#path7288"
       transform="matrix(0.711,0,0,0.711,25.95938,58.227412)"
       id="use8977"
       inkscape:transform-center-x="-9.0986569"
       inkscape:transform-center-y="15.078701"
       width="100%"
       height="100%" />
    <use
       x="0"
       y="0"
       inkscape:tiled-clone-of="#path7288"
       xlink:href="#path7288"
       transform="matrix(0.7025,0,0,0.7025,26.722891,59.911924)"
       id="use8979"
       inkscape:transform-center-x="-9.0986568"
       inkscape:transform-center-y="15.461704"
       width="100%"
       height="100%" />
    <use
       x="0"
       y="0"
       inkscape:tiled-clone-of="#path7288"
       xlink:href="#path7288"
       transform="matrix(0.694,0,0,0.694,27.486402,61.595688)"
       id="use8981"
       inkscape:transform-center-x="-9.0986566"
       inkscape:transform-center-y="15.844157"
       width="100%"
       height="100%" />
    <use
       x="0"
       y="0"
       inkscape:tiled-clone-of="#path7288"
       xlink:href="#path7288"
       transform="matrix(0.6855,0,0,0.6855,28.249913,63.278724)"
       id="use8983"
       inkscape:transform-center-x="-9.0986565"
       inkscape:transform-center-y="16.226075"
       width="100%"
       height="100%" />
    <use
       x="0"
       y="0"
       inkscape:tiled-clone-of="#path7288"
       xlink:href="#path7288"
       transform="matrix(0.677,0,0,0.677,29.013425,64.961051)"
       id="use8985"
       inkscape:transform-center-x="-9.0986573"
       inkscape:transform-center-y="16.607472"
       width="100%"
       height="100%" />
    <use
       x="0"
       y="0"
       inkscape:tiled-clone-of="#path7288"
       xlink:href="#path7288"
       transform="matrix(0.6685,0,0,0.6685,29.776936,66.64269)"
       id="use8987"
       inkscape:transform-center-x="-9.098657"
       inkscape:transform-center-y="16.988362"
       width="100%"
       height="100%" />
    <use
       x="0"
       y="0"
       inkscape:tiled-clone-of="#path7288"
       xlink:href="#path7288"
       transform="matrix(0.66,0,0,0.66,30.540447,68.323662)"
       id="use8989"
       inkscape:transform-center-x="-9.0986568"
       inkscape:transform-center-y="17.368763"
       width="100%"
       height="100%" />
    <use
       x="0"
       y="0"
       inkscape:tiled-clone-of="#path7288"
       xlink:href="#path7288"
       transform="matrix(0.6515,0,0,0.6515,31.303958,70.003978)"
       id="use8991"
       inkscape:transform-center-x="-9.0986567"
       inkscape:transform-center-y="17.748679"
       width="100%"
       height="100%" />
    <use
       x="0"
       y="0"
       inkscape:tiled-clone-of="#path7288"
       xlink:href="#path7288"
       transform="matrix(0.643,0,0,0.643,32.067469,71.683661)"
       id="use8993"
       inkscape:transform-center-x="-9.0986566"
       inkscape:transform-center-y="18.128132"
       width="100%"
       height="100%" />
    <use
       x="0"
       y="0"
       inkscape:tiled-clone-of="#path7288"
       xlink:href="#path7288"
       transform="matrix(0.6345,0,0,0.6345,32.83098,73.362726)"
       id="use8995"
       inkscape:transform-center-x="-9.0986564"
       inkscape:transform-center-y="18.50713"
       width="100%"
       height="100%" />
    <use
       x="0"
       y="0"
       inkscape:tiled-clone-of="#path7288"
       xlink:href="#path7288"
       transform="matrix(0.626,0,0,0.626,33.594492,75.041184)"
       id="use8997"
       inkscape:transform-center-x="-9.098657"
       inkscape:transform-center-y="18.88568"
       width="100%"
       height="100%" />
    <use
       x="0"
       y="0"
       inkscape:tiled-clone-of="#path7288"
       xlink:href="#path7288"
       transform="matrix(0.6175,0,0,0.6175,34.358003,76.719051)"
       id="use8999"
       inkscape:transform-center-x="-9.0986569"
       inkscape:transform-center-y="19.263797"
       width="100%"
       height="100%" />
    <use
       x="0"
       y="0"
       inkscape:tiled-clone-of="#path7288"
       xlink:href="#path7288"
       transform="matrix(0.609,0,0,0.609,35.121514,78.396344)"
       id="use9001"
       inkscape:transform-center-x="-9.0986568"
       inkscape:transform-center-y="19.641491"
       width="100%"
       height="100%" />
    <use
       x="0"
       y="0"
       inkscape:tiled-clone-of="#path7288"
       xlink:href="#path7288"
       transform="matrix(0.6005,0,0,0.6005,35.885025,80.073075)"
       id="use9003"
       inkscape:transform-center-x="-9.0986566"
       inkscape:transform-center-y="20.018772"
       width="100%"
       height="100%" />
    <use
       x="0"
       y="0"
       inkscape:tiled-clone-of="#path7288"
       xlink:href="#path7288"
       transform="matrix(0.592,0,0,0.592,36.648536,81.749255)"
       id="use9005"
       inkscape:transform-center-x="-9.0986565"
       inkscape:transform-center-y="20.395649"
       width="100%"
       height="100%" />
    <use
       x="0"
       y="0"
       inkscape:tiled-clone-of="#path7288"
       xlink:href="#path7288"
       transform="matrix(0.5835,0,0,0.5835,37.412047,83.424894)"
       id="use9007"
       inkscape:transform-center-x="-9.0986564"
       inkscape:transform-center-y="20.772126"
       width="100%"
       height="100%" />
    <use
       x="0"
       y="0"
       inkscape:tiled-clone-of="#path7288"
       xlink:href="#path7288"
       transform="matrix(0.575,0,0,0.575,38.175559,85.100009)"
       id="use9009"
       inkscape:transform-center-x="-9.098657"
       inkscape:transform-center-y="21.148219"
       width="100%"
       height="100%" />
    <use
       x="0"
       y="0"
       inkscape:tiled-clone-of="#path7288"
       xlink:href="#path7288"
       transform="matrix(0.5665,0,0,0.5665,38.93907,86.774609)"
       id="use9011"
       inkscape:transform-center-x="-9.0986568"
       inkscape:transform-center-y="21.523933"
       width="100%"
       height="100%" />
    <use
       x="0"
       y="0"
       inkscape:tiled-clone-of="#path7288"
       xlink:href="#path7288"
       transform="matrix(0.558,0,0,0.558,39.702581,88.448701)"
       id="use9013"
       inkscape:transform-center-x="-9.0986567"
       inkscape:transform-center-y="21.899273"
       width="100%"
       height="100%" />
    <use
       x="0"
       y="0"
       inkscape:tiled-clone-of="#path7288"
       xlink:href="#path7288"
       transform="matrix(0.5495,0,0,0.5495,40.466092,90.122298)"
       id="use9015"
       inkscape:transform-center-x="-9.0986566"
       inkscape:transform-center-y="22.274249"
       width="100%"
       height="100%" />
    <use
       x="0"
       y="0"
       inkscape:tiled-clone-of="#path7288"
       xlink:href="#path7288"
       transform="matrix(0.541,0,0,0.541,41.229603,91.795412)"
       id="use9017"
       inkscape:transform-center-x="-9.0986564"
       inkscape:transform-center-y="22.648871"
       width="100%"
       height="100%" />
    <use
       x="0"
       y="0"
       inkscape:tiled-clone-of="#path7288"
       xlink:href="#path7288"
       transform="matrix(0.5325,0,0,0.5325,41.993115,93.468048)"
       id="use9019"
       inkscape:transform-center-x="-9.0986573"
       inkscape:transform-center-y="23.02314"
       width="100%"
       height="100%" />
    <use
       x="0"
       y="0"
       inkscape:tiled-clone-of="#path7288"
       xlink:href="#path7288"
       transform="matrix(0.524,0,0,0.524,42.756626,95.140219)"
       id="use9021"
       inkscape:transform-center-x="-9.0986569"
       inkscape:transform-center-y="23.397067"
       width="100%"
       height="100%" />
    <use
       x="0"
       y="0"
       inkscape:tiled-clone-of="#path7288"
       xlink:href="#path7288"
       transform="matrix(0.5155,0,0,0.5155,43.520137,96.811933)"
       id="use9023"
       inkscape:transform-center-x="-9.0986568"
       inkscape:transform-center-y="23.770659"
       width="100%"
       height="100%" />
    <use
       x="0"
       y="0"
       inkscape:tiled-clone-of="#path7288"
       xlink:href="#path7288"
       transform="matrix(0.507,0,0,0.507,44.283648,98.483194)"
       id="use9025"
       inkscape:transform-center-x="-9.0986566"
       inkscape:transform-center-y="24.143917"
       width="100%"
       height="100%" />
    <use
       x="0"
       y="0"
       inkscape:tiled-clone-of="#path7288"
       xlink:href="#path7288"
       transform="matrix(0.4985,0,0,0.4985,45.047159,100.15402)"
       id="use9027"
       inkscape:transform-center-x="-9.0986565"
       inkscape:transform-center-y="24.516857"
       width="100%"
       height="100%" />
    <use
       x="0"
       y="0"
       inkscape:tiled-clone-of="#path7288"
       xlink:href="#path7288"
       transform="matrix(0.49,0,0,0.49,45.81067,101.82441)"
       id="use9029"
       inkscape:transform-center-x="-9.0986564"
       inkscape:transform-center-y="24.889476"
       width="100%"
       height="100%" />
    <use
       x="0"
       y="0"
       inkscape:tiled-clone-of="#path7288"
       xlink:href="#path7288"
       transform="matrix(0.4815,0,0,0.4815,46.574182,103.49437)"
       id="use9031"
       inkscape:transform-center-x="-9.098657"
       inkscape:transform-center-y="25.261776"
       width="100%"
       height="100%" />
    <use
       x="0"
       y="0"
       inkscape:tiled-clone-of="#path7288"
       xlink:href="#path7288"
       transform="matrix(0.473,0,0,0.473,47.337693,105.16391)"
       id="use9033"
       inkscape:transform-center-x="-9.0986568"
       inkscape:transform-center-y="25.633768"
       width="100%"
       height="100%" />
    <use
       x="0"
       y="0"
       inkscape:tiled-clone-of="#path7288"
       xlink:href="#path7288"
       transform="matrix(0.4645,0,0,0.4645,48.101204,106.83304)"
       id="use9035"
       inkscape:transform-center-x="-9.0986567"
       inkscape:transform-center-y="26.005458"
       width="100%"
       height="100%" />
    <use
       x="0"
       y="0"
       inkscape:tiled-clone-of="#path7288"
       xlink:href="#path7288"
       transform="matrix(0.456,0,0,0.456,48.864715,108.50177)"
       id="use9037"
       inkscape:transform-center-x="-9.0986566"
       inkscape:transform-center-y="26.376857"
       width="100%"
       height="100%" />
    <use
       x="0"
       y="0"
       inkscape:tiled-clone-of="#path7288"
       xlink:href="#path7288"
       transform="matrix(0.4475,0,0,0.4475,49.628226,110.1701)"
       id="use9039"
       inkscape:transform-center-x="-9.0986564"
       inkscape:transform-center-y="26.747959"
       width="100%"
       height="100%" />
    <use
       x="0"
       y="0"
       inkscape:tiled-clone-of="#path7288"
       xlink:href="#path7288"
       transform="matrix(0.439,0,0,0.439,50.391737,111.83804)"
       id="use9041"
       inkscape:transform-center-x="-9.0986563"
       inkscape:transform-center-y="27.118777"
       width="100%"
       height="100%" />
    <use
       x="0"
       y="0"
       inkscape:tiled-clone-of="#path7288"
       xlink:href="#path7288"
       transform="matrix(0.4305,0,0,0.4305,51.155249,113.50559)"
       id="use9043"
       inkscape:transform-center-x="-9.0986569"
       inkscape:transform-center-y="27.489303"
       width="100%"
       height="100%" />
    <use
       x="0"
       y="0"
       inkscape:tiled-clone-of="#path7288"
       xlink:href="#path7288"
       transform="matrix(0.422,0,0,0.422,51.91876,115.17276)"
       id="use9045"
       inkscape:transform-center-x="-9.0986568"
       inkscape:transform-center-y="27.859553"
       width="100%"
       height="100%" />
    <use
       x="0"
       y="0"
       inkscape:tiled-clone-of="#path7288"
       xlink:href="#path7288"
       transform="matrix(0.4135,0,0,0.4135,52.682271,116.83956)"
       id="use9047"
       inkscape:transform-center-x="-9.0986566"
       inkscape:transform-center-y="28.229532"
       width="100%"
       height="100%" />
    <use
       x="0"
       y="0"
       inkscape:tiled-clone-of="#path7288"
       xlink:href="#path7288"
       transform="matrix(0.405,0,0,0.405,53.445782,118.506)"
       id="use9049"
       inkscape:transform-center-x="-9.0986565"
       inkscape:transform-center-y="28.599246"
       width="100%"
       height="100%" />
    <use
       x="0"
       y="0"
       inkscape:tiled-clone-of="#path7288"
       xlink:href="#path7288"
       transform="matrix(0.3965,0,0,0.3965,54.209293,120.17206)"
       id="use9051"
       inkscape:transform-center-x="-9.0986564"
       inkscape:transform-center-y="28.968677"
       width="100%"
       height="100%" />
    <use
       x="0"
       y="0"
       inkscape:tiled-clone-of="#path7288"
       xlink:href="#path7288"
       transform="matrix(0.388,0,0,0.388,54.972804,121.83778)"
       id="use9053"
       inkscape:transform-center-x="-9.0986562"
       inkscape:transform-center-y="29.337861"
       width="100%"
       height="100%" />
    <use
       x="0"
       y="0"
       inkscape:tiled-clone-of="#path7288"
       xlink:href="#path7288"
       transform="matrix(0.3795,0,0,0.3795,55.736316,123.50314)"
       id="use9055"
       inkscape:transform-center-x="-9.0986568"
       inkscape:transform-center-y="29.706779"
       width="100%"
       height="100%" />
    <use
       x="0"
       y="0"
       inkscape:tiled-clone-of="#path7288"
       xlink:href="#path7288"
       transform="matrix(0.371,0,0,0.371,56.499827,125.16815)"
       id="use9057"
       inkscape:transform-center-x="-9.0986567"
       inkscape:transform-center-y="30.075441"
       width="100%"
       height="100%" />
    <use
       x="0"
       y="0"
       inkscape:tiled-clone-of="#path7288"
       xlink:href="#path7288"
       transform="matrix(0.3625,0,0,0.3625,57.263338,126.83282)"
       id="use9059"
       inkscape:transform-center-x="-9.0986566"
       inkscape:transform-center-y="30.443851"
       width="100%"
       height="100%" />
    <use
       x="0"
       y="0"
       inkscape:tiled-clone-of="#path7288"
       xlink:href="#path7288"
       transform="matrix(0.354,0,0,0.354,58.026849,128.49716)"
       id="use9061"
       inkscape:transform-center-x="-9.0986564"
       inkscape:transform-center-y="30.81202"
       width="100%"
       height="100%" />
    <use
       x="0"
       y="0"
       inkscape:tiled-clone-of="#path7288"
       xlink:href="#path7288"
       transform="matrix(0.3455,0,0,0.3455,58.79036,130.16116)"
       id="use9063"
       inkscape:transform-center-x="-9.0986563"
       inkscape:transform-center-y="31.179938"
       width="100%"
       height="100%" />
    <use
       x="0"
       y="0"
       inkscape:tiled-clone-of="#path7288"
       xlink:href="#path7288"
       transform="matrix(0.337,0,0,0.337,59.553871,131.82484)"
       id="use9065"
       inkscape:transform-center-x="-9.0986559"
       inkscape:transform-center-y="31.547622"
       width="100%"
       height="100%" />
    <use
       x="0"
       y="0"
       inkscape:tiled-clone-of="#path7288"
       xlink:href="#path7288"
       transform="matrix(0.3285,0,0,0.3285,60.317383,133.48819)"
       id="use9067"
       inkscape:transform-center-x="-9.0986568"
       inkscape:transform-center-y="31.915062"
       width="100%"
       height="100%" />
    <use
       x="0"
       y="0"
       inkscape:tiled-clone-of="#path7288"
       xlink:href="#path7288"
       transform="matrix(0.32,0,0,0.32,61.080894,135.15122)"
       id="use9069"
       inkscape:transform-center-x="-9.0986566"
       inkscape:transform-center-y="32.282266"
       width="100%"
       height="100%" />
    <use
       x="0"
       y="0"
       inkscape:tiled-clone-of="#path7288"
       xlink:href="#path7288"
       transform="matrix(0.3115,0,0,0.3115,61.844405,136.81394)"
       id="use9071"
       inkscape:transform-center-x="-9.0986565"
       inkscape:transform-center-y="32.649244"
       width="100%"
       height="100%" />
    <use
       x="0"
       y="0"
       inkscape:tiled-clone-of="#path7288"
       xlink:href="#path7288"
       transform="matrix(0.303,0,0,0.303,62.607916,138.47635)"
       id="use9073"
       inkscape:transform-center-x="-9.0986564"
       inkscape:transform-center-y="33.015993"
       width="100%"
       height="100%" />
    <use
       x="0"
       y="0"
       inkscape:tiled-clone-of="#path7288"
       xlink:href="#path7288"
       transform="matrix(0.2945,0,0,0.2945,63.371427,140.13845)"
       id="use9075"
       inkscape:transform-center-x="-9.0986562"
       inkscape:transform-center-y="33.382516"
       width="100%"
       height="100%" />
    <use
       x="0"
       y="0"
       inkscape:tiled-clone-of="#path7288"
       xlink:href="#path7288"
       transform="matrix(0.286,0,0,0.286,64.134938,141.80025)"
       id="use9077"
       inkscape:transform-center-x="-9.0986559"
       inkscape:transform-center-y="33.748815"
       width="100%"
       height="100%" />
    <use
       x="0"
       y="0"
       inkscape:tiled-clone-of="#path7288"
       xlink:href="#path7288"
       transform="matrix(0.2775,0,0,0.2775,64.89845,143.46175)"
       id="use9079"
       inkscape:transform-center-x="-9.0986567"
       inkscape:transform-center-y="34.114896"
       width="100%"
       height="100%" />
    <use
       x="0"
       y="0"
       inkscape:tiled-clone-of="#path7288"
       xlink:href="#path7288"
       transform="matrix(0.269,0,0,0.269,65.661961,145.12295)"
       id="use9081"
       inkscape:transform-center-x="-9.0986566"
       inkscape:transform-center-y="34.480755"
       width="100%"
       height="100%" />
    <use
       x="0"
       y="0"
       inkscape:tiled-clone-of="#path7288"
       xlink:href="#path7288"
       transform="matrix(0.2605,0,0,0.2605,66.425472,146.78386)"
       id="use9083"
       inkscape:transform-center-x="-9.0986564"
       inkscape:transform-center-y="34.846401"
       width="100%"
       height="100%" />
    <use
       x="0"
       y="0"
       inkscape:tiled-clone-of="#path7288"
       xlink:href="#path7288"
       transform="matrix(0.252,0,0,0.252,67.188983,148.44449)"
       id="use9085"
       inkscape:transform-center-x="-9.0986563"
       inkscape:transform-center-y="35.211843"
       width="100%"
       height="100%" />
    <use
       x="0"
       y="0"
       inkscape:tiled-clone-of="#path7288"
       xlink:href="#path7288"
       transform="matrix(0.2435,0,0,0.2435,67.952494,150.10482)"
       id="use9087"
       inkscape:transform-center-x="-9.0986562"
       inkscape:transform-center-y="35.577059"
       width="100%"
       height="100%" />
    <use
       x="0"
       y="0"
       inkscape:tiled-clone-of="#path7288"
       xlink:href="#path7288"
       transform="matrix(0.235,0,0,0.235,68.716005,151.76488)"
       id="use9089"
       inkscape:transform-center-x="-9.0986558"
       inkscape:transform-center-y="35.942082"
       width="100%"
       height="100%" />
    <use
       x="0"
       y="0"
       inkscape:tiled-clone-of="#path7288"
       xlink:href="#path7288"
       transform="matrix(0.2265,0,0,0.2265,69.479517,153.42466)"
       id="use9091"
       inkscape:transform-center-x="-9.0986567"
       inkscape:transform-center-y="36.306898"
       width="100%"
       height="100%" />
    <use
       x="0"
       y="0"
       inkscape:tiled-clone-of="#path7288"
       xlink:href="#path7288"
       transform="matrix(0.218,0,0,0.218,70.243028,155.08416)"
       id="use9093"
       inkscape:transform-center-x="-9.0986565"
       inkscape:transform-center-y="36.671506"
       width="100%"
       height="100%" />
  </g>
</svg>
